<?xml version="1.0" encoding="UTF-8" standalone="no"?>
<svg
   width="42.290771"
   height="54.397209"
   viewBox="0 0 42.290771 54.397209"
   version="1.1"
   id="svg8"
   xmlns:xlink="http://www.w3.org/1999/xlink"
   xmlns="http://www.w3.org/2000/svg"
   xmlns:svg="http://www.w3.org/2000/svg">
  <defs
     id="defs8">
    <pattern
       xlink:href="#Bricks-06"
       id="pattern28-1"
       patternTransform="matrix(0.03141995,0,0,0.04829787,-55.925897,-40.920837)"
       x="0"
       y="0"
       preserveAspectRatio="none" />
    <pattern
       patternUnits="userSpaceOnUse"
       width="100"
       height="100"
       id="Bricks-06"
       style="fill:#990000"
       patternTransform="scale(0.25,0.25)">
      <g
         id="g13367-3">
        <rect
           style="fill:none;stroke:none;stroke-width:0"
           id="rect13349-20"
           width="100"
           height="100"
           x="0"
           y="0" />
        <rect
           style="fill-opacity:1;stroke-width:0"
           id="rect13351-6"
           width="40"
           height="40"
           x="0"
           y="60" />
        <rect
           style="fill-opacity:1;stroke-width:0"
           id="rect13353-15"
           width="90"
           height="40"
           x="0"
           y="10" />
        <rect
           style="fill-opacity:1;stroke-width:0"
           id="rect13355-5"
           width="50"
           height="40"
           x="50"
           y="60" />
      </g>
    </pattern>
    <pattern
       xlink:href="#Bricks-56"
       id="pattern28-6"
       patternTransform="matrix(0.03337579,0,0,0.05,-41.096889,-23.477947)"
       x="0"
       y="0"
       preserveAspectRatio="none" />
    <pattern
       patternUnits="userSpaceOnUse"
       width="100"
       height="100"
       id="Bricks-56"
       style="fill:#990000"
       patternTransform="scale(0.25,0.25)">
      <g
         id="g13367-9">
        <rect
           style="fill:none;stroke:none;stroke-width:0"
           id="rect13349-37"
           width="100"
           height="100"
           x="0"
           y="0" />
        <rect
           style="fill-opacity:1;stroke-width:0"
           id="rect13351-4"
           width="40"
           height="40"
           x="0"
           y="60" />
        <rect
           style="fill-opacity:1;stroke-width:0"
           id="rect13353-52"
           width="90"
           height="40"
           x="0"
           y="10" />
        <rect
           style="fill-opacity:1;stroke-width:0"
           id="rect13355-54"
           width="50"
           height="40"
           x="50"
           y="60" />
      </g>
    </pattern>
    <pattern
       xlink:href="#Bricks-56-3"
       id="pattern28-6-4"
       patternTransform="matrix(0.03337579,0,0,0.05,-59.615079,-41.578839)"
       x="0"
       y="0"
       preserveAspectRatio="none" />
    <pattern
       patternUnits="userSpaceOnUse"
       width="100"
       height="100"
       id="Bricks-56-3"
       style="fill:#6e0000"
       patternTransform="scale(0.25,0.25)">
      <g
         id="g13367-9-0">
        <rect
           style="fill:none;stroke:none;stroke-width:0"
           id="rect13349-37-7"
           width="100"
           height="100"
           x="0"
           y="0" />
        <rect
           style="fill-opacity:1;stroke-width:0"
           id="rect13351-4-8"
           width="40"
           height="40"
           x="0"
           y="60" />
        <rect
           style="fill-opacity:1;stroke-width:0"
           id="rect13353-52-6"
           width="90"
           height="40"
           x="0"
           y="10" />
        <rect
           style="fill-opacity:1;stroke-width:0"
           id="rect13355-54-8"
           width="50"
           height="40"
           x="50"
           y="60" />
      </g>
    </pattern>
    <pattern
       xlink:href="#Bricks-06-6"
       id="pattern28-1-2"
       patternTransform="matrix(0.03141995,0,0,0.04829787,-30.640867,-63.008297)"
       x="0"
       y="0"
       preserveAspectRatio="none" />
    <pattern
       patternUnits="userSpaceOnUse"
       width="100"
       height="100"
       id="Bricks-06-6"
       style="fill:#880000"
       patternTransform="scale(0.25,0.25)">
      <g
         id="g13367-3-6">
        <rect
           style="fill:none;stroke:none;stroke-width:0"
           id="rect13349-20-4"
           width="100"
           height="100"
           x="0"
           y="0" />
        <rect
           style="fill-opacity:1;stroke-width:0"
           id="rect13351-6-9"
           width="40"
           height="40"
           x="0"
           y="60" />
        <rect
           style="fill-opacity:1;stroke-width:0"
           id="rect13353-15-5"
           width="90"
           height="40"
           x="0"
           y="10" />
        <rect
           style="fill-opacity:1;stroke-width:0"
           id="rect13355-5-0"
           width="50"
           height="40"
           x="50"
           y="60" />
      </g>
    </pattern>
    <linearGradient
       id="SVGID_1_-8"
       gradientUnits="userSpaceOnUse"
       x1="63.815899"
       y1="56.682899"
       x2="118.4934"
       y2="1.8225"
       gradientTransform="matrix(1,0,0,-1,283.4926,47.5091)"> <stop
   offset="0"
   style="stop-color:#387EB8"
   id="stop1-1" />
 <stop
   offset="1"
   style="stop-color:#366994"
   id="stop2-2" />
</linearGradient>
    <linearGradient
       id="SVGID_2_-9"
       gradientUnits="userSpaceOnUse"
       x1="97.044403"
       y1="21.632099"
       x2="155.6665"
       y2="-34.5308"
       gradientTransform="matrix(1,0,0,-1,283.4926,47.5091)"> <stop
   offset="0"
   style="stop-color:#FFE052"
   id="stop3-3" />
 <stop
   offset="1"
   style="stop-color:#FFC331"
   id="stop4-9" />
</linearGradient>
  </defs>
  <rect
     style="fill:#444444;fill-opacity:1;stroke-width:1.95819"
     id="rect27-7-8-1"
     width="21.185106"
     height="12.921015"
     x="26.86688"
     y="-8.2166109"
     transform="matrix(0.83160642,0.55536543,0,1,0,0)" />
  <rect
     style="fill:#2f2f2f;fill-opacity:1;stroke-width:2.05348"
     id="rect27-4-4-9"
     width="22.503851"
     height="13.376381"
     x="1.4394329"
     y="14.936698"
     transform="matrix(0.93751537,-0.34794385,0,1,0,0)" />
  <!-- === SANDBOX (red brick square, skewed perspective) === -->
  <!-- Back rim -->
  <!-- Left wall -->
  <!-- Right wall -->
  <!-- Sand surface -->
  <!-- Brick pattern (subtle horizontal lines) -->
  <!-- === PYTHON LOGO (clean, NOT skewed) === -->
  <!-- === TITLE === -->
  <text
     x="20.714994"
     y="51.398613"
     text-anchor="middle"
     font-family="Arial, sans-serif"
     font-size="14.4497px"
     fill="#4b2e83"
     font-weight="bold"
     id="text8"
     style="fill:#366d9c;fill-opacity:1;stroke-width:0.555758">Pybox</text>
  <rect
     style="fill:url(#pattern28-6-4);stroke-width:2.05348"
     id="rect27-4-4"
     width="22.503851"
     height="13.376381"
     x="1.508311"
     y="15.080451"
     transform="matrix(0.93751537,-0.34794385,0,1,0,0)" />
  <rect
     style="fill:url(#pattern28-1-2);stroke-width:1.95819"
     id="rect27-7-8"
     width="21.185106"
     height="12.921015"
     x="26.900602"
     y="-8.2778368"
     transform="matrix(0.83160642,0.55536543,0,1,0,0)" />
  <rect
     style="fill:#554400;fill-opacity:1;stroke-width:1.40008"
     id="rect28-63"
     width="10.670537"
     height="10.872401"
     x="-16.605207"
     y="33.463734"
     transform="matrix(0.94509182,-0.32680491,0.84808934,0.52985326,0,0)" />
  <rect
     style="fill:#554400;fill-opacity:1;stroke-width:1.78665"
     id="rect28-63-4"
     width="13.48304"
     height="14.01194"
     x="-14.410329"
     y="28.543226"
     transform="matrix(0.93333706,-0.35900129,0.82117334,0.57067885,0,0)" />
  <g
     id="g29"
     transform="matrix(0.25653819,0,0,0.25653819,-79.240666,4.8742262)">
    <path
       fill="url(#SVGID_1_)"
       d="m 391.813,-19 c -25.971,0 -26.25,10.081 -26.25,12.156 0,3.148 0,12.594 0,12.594 h 26.75 v 3.781 c 0,0 -27.852,0 -37.375,0 -7.949,0 -17.938,4.833 -17.938,26.25 0,19.673 7.792,27.281 15.656,27.281 2.335,0 9.344,0 9.344,0 0,0 0,-9.765 0,-13.125 0,-5.491 2.721,-15.656 15.406,-15.656 15.91,0 19.971,0 26.531,0 3.902,0 14.906,-1.696 14.906,-14.406 0,-13.452 0,-17.89 0,-24.219 C 418.844,-7.497 418.305,-19 391.813,-19 Z m -14.75,8.469 c 2.662,0 4.813,2.15 4.813,4.813 0,2.661 -2.151,4.813 -4.813,4.813 -2.662,0 -4.813,-2.151 -4.813,-4.813 0,-2.663 2.151,-4.813 4.813,-4.813 z"
       id="path2"
       style="fill:url(#SVGID_1_-8)" />
    <path
       fill="url(#SVGID_2_)"
       d="m 392.187,91 c 25.959,0 26.282,-10.271 26.282,-12.156 0,-3.148 0,-12.594 0,-12.594 h -26.782 v -3.781 c 0,0 28.032,0 37.375,0 8.009,0 17.938,-4.954 17.938,-26.25 0,-23.322 -10.538,-27.281 -15.656,-27.281 -2.336,0 -9.344,0 -9.344,0 0,0 0,10.216 0,13.125 0,5.491 -2.631,15.656 -15.406,15.656 -15.91,0 -19.476,0 -26.532,0 -3.892,0 -14.906,1.896 -14.906,14.406 0,14.475 0,18.265 0,24.219 0,5.23 3.196,14.656 27.031,14.656 z m 14.751,-8.469 c -2.662,0 -4.813,-2.151 -4.813,-4.813 0,-2.662 2.15,-4.813 4.813,-4.813 2.661,0 4.813,2.151 4.813,4.813 0,2.662 -2.152,4.813 -4.813,4.813 z"
       id="path4"
       style="fill:url(#SVGID_2_-9)" />
  </g>
  <rect
     style="fill:#717171;fill-opacity:1;stroke-width:1.95819"
     id="rect27-7-7"
     width="21.185106"
     height="12.921015"
     x="1.5052614"
     y="13.576945"
     transform="matrix(0.83160642,0.55536543,0,1,0,0)" />
  <rect
     style="fill:url(#pattern28-1);stroke-width:1.95819"
     id="rect27-7"
     width="21.185106"
     height="12.921015"
     x="1.6155977"
     y="13.809638"
     transform="matrix(0.83160642,0.55536543,0,1,0,0)" />
  <rect
     style="fill:#7d7d7d;fill-opacity:1;stroke-width:2.05348"
     id="rect27-4-7"
     width="22.503851"
     height="13.376381"
     x="20.070902"
     y="33.178955"
     transform="matrix(0.93751537,-0.34794385,0,1,0,0)" />
  <rect
     style="fill:url(#pattern28-6);stroke-width:2.05348"
     id="rect27-4"
     width="22.503851"
     height="13.376381"
     x="20.026514"
     y="33.181335"
     transform="matrix(0.93751537,-0.34794385,0,1,0,0)" />
</svg>
